999
DXF created from Projekt
0
SECTION
2
HEADER
9
$ACADVER
1
AC1006
9
$INSUNITS
70
4
9
$INSBASE
10
0.0
20
0.0
30
0.0
9
$EXTMIN
10
-79.384
20
-79.384
9
$EXTMAX
10
79.384
20
57.01
0
ENDSEC
0
SECTION
2
TABLES
0
TABLE
2
LTYPE
70
1
0
LTYPE
2
CONTINUOUS
70
64
3
Solid line
72
65
73
0
40
0.000000
0
ENDTAB
0
TABLE
2
LAYER
70
6
0
LAYER
2
1
70
64
62
7
6
CONTINUOUS
0
ENDTAB
0
TABLE
2
STYLE
70
0
0
ENDTAB
0
ENDSEC
0
SECTION
2
BLOCKS
0
ENDSEC
0
SECTION
2
ENTITIES
0
LINE
8
1
10
9.279
20
-70.475
11
9.525
21
-70.721
62
0
0
LINE
8
1
10
9.525
20
-70.721
11
9.724
21
-71.006
62
0
0
LINE
8
1
10
9.724
20
-71.006
11
9.869
21
-71.318
62
0
0
LINE
8
1
10
9.869
20
-71.318
11
9.959
21
-71.655
62
0
0
LINE
8
1
10
9.959
20
-71.655
11
9.991
21
-79.383
62
0
0
LINE
8
1
10
9.991
20
-79.383
11
20.028
21
-77.461
62
0
0
LINE
8
1
10
20.028
20
-77.461
11
27.488
21
-75.14
62
0
0
LINE
8
1
10
27.488
20
-75.14
11
36.911
21
-70.986
62
0
0
LINE
8
1
10
36.911
20
-70.986
11
45.651
21
-65.707
62
0
0
LINE
8
1
10
45.651
20
-65.707
11
51.842
21
-60.942
62
0
0
LINE
8
1
10
51.842
20
-60.942
11
59.24
21
-53.778
62
0
0
LINE
8
1
10
59.24
20
-53.778
11
65.657
21
-45.724
62
0
0
LINE
8
1
10
65.657
20
-45.724
11
70.986
21
-36.912
62
0
0
LINE
8
1
10
70.986
20
-36.912
11
75.139
21
-27.489
62
0
0
LINE
8
1
10
75.139
20
-27.489
11
78.048
21
-17.611
62
0
0
LINE
8
1
10
78.048
20
-17.611
11
79.384
21
-9.99
62
0
0
LINE
8
1
10
79.384
20
-9.99
11
71.666
21
-9.961
62
0
0
LINE
8
1
10
71.666
20
-9.961
11
71.329
21
-9.873
62
0
0
LINE
8
1
10
71.329
20
-9.873
11
71.329
21
-9.874
62
0
0
LINE
8
1
10
71.329
20
-9.874
11
71.319
21
-9.87
62
0
0
LINE
8
1
10
71.319
20
-9.87
11
71.006
21
-9.724
62
0
0
LINE
8
1
10
71.006
20
-9.724
11
70.72
21
-9.524
62
0
0
LINE
8
1
10
70.72
20
-9.524
11
70.474
21
-9.278
62
0
0
LINE
8
1
10
70.474
20
-9.278
11
70.275
21
-8.994
62
0
0
LINE
8
1
10
70.275
20
-8.994
11
70.13
21
-8.681
62
0
0
LINE
8
1
10
70.13
20
-8.681
11
70.04
21
-8.344
62
0
0
LINE
8
1
10
70.04
20
-8.344
11
70.01
21
8.001
62
0
0
LINE
8
1
10
70.01
20
8.001
11
70.04
21
8.344
62
0
0
LINE
8
1
10
70.04
20
8.344
11
70.13
21
8.681
62
0
0
LINE
8
1
10
70.13
20
8.681
11
70.275
21
8.994
62
0
0
LINE
8
1
10
70.275
20
8.994
11
70.474
21
9.278
62
0
0
LINE
8
1
10
70.474
20
9.278
11
70.72
21
9.524
62
0
0
LINE
8
1
10
70.72
20
9.524
11
71.006
21
9.724
62
0
0
LINE
8
1
10
71.006
20
9.724
11
71.318
21
9.869
62
0
0
LINE
8
1
10
71.318
20
9.869
11
71.655
21
9.959
62
0
0
LINE
8
1
10
71.655
20
9.959
11
79.383
21
9.991
62
0
0
LINE
8
1
10
79.383
20
9.991
11
77.493
21
19.905
62
0
0
LINE
8
1
10
77.493
20
19.905
11
75.217
21
27.277
62
0
0
LINE
8
1
10
75.217
20
27.277
11
71.149
21
36.597
62
0
0
LINE
8
1
10
71.149
20
36.597
11
65.932
21
45.326
62
0
0
LINE
8
1
10
65.932
20
45.326
11
59.707
21
53.258
62
0
0
LINE
8
1
10
59.707
20
53.258
11
56.138
21
57.01
62
0
0
LINE
8
1
10
56.138
20
57.01
11
-56.137
21
57.01
62
0
0
LINE
8
1
10
-56.137
20
57.01
11
-62.918
21
49.426
62
0
0
LINE
8
1
10
-62.918
20
49.426
11
-68.678
21
41.046
62
0
0
LINE
8
1
10
-68.678
20
41.046
11
-73.33
21
32.002
62
0
0
LINE
8
1
10
-73.33
20
32.002
11
-76.797
21
22.442
62
0
0
LINE
8
1
10
-76.797
20
22.442
11
-79.024
21
12.52
62
0
0
LINE
8
1
10
-79.024
20
12.52
11
-79.384
21
9.99
62
0
0
LINE
8
1
10
-79.384
20
9.99
11
-71.666
21
9.961
62
0
0
LINE
8
1
10
-71.666
20
9.961
11
-71.329
21
9.873
62
0
0
LINE
8
1
10
-71.329
20
9.873
11
-71.329
21
9.874
62
0
0
LINE
8
1
10
-71.329
20
9.874
11
-71.319
21
9.87
62
0
0
LINE
8
1
10
-71.319
20
9.87
11
-71.006
21
9.724
62
0
0
LINE
8
1
10
-71.006
20
9.724
11
-70.72
21
9.524
62
0
0
LINE
8
1
10
-70.72
20
9.524
11
-70.474
21
9.278
62
0
0
LINE
8
1
10
-70.474
20
9.278
11
-70.275
21
8.994
62
0
0
LINE
8
1
10
-70.275
20
8.994
11
-70.13
21
8.681
62
0
0
LINE
8
1
10
-70.13
20
8.681
11
-70.04
21
8.344
62
0
0
LINE
8
1
10
-70.04
20
8.344
11
-70.01
21
-8.001
62
0
0
LINE
8
1
10
-70.01
20
-8.001
11
-70.04
21
-8.344
62
0
0
LINE
8
1
10
-70.04
20
-8.344
11
-70.13
21
-8.681
62
0
0
LINE
8
1
10
-70.13
20
-8.681
11
-70.276
21
-8.996
62
0
0
LINE
8
1
10
-70.276
20
-8.996
11
-70.475
21
-9.279
62
0
0
LINE
8
1
10
-70.475
20
-9.279
11
-70.721
21
-9.525
62
0
0
LINE
8
1
10
-70.721
20
-9.525
11
-71.006
21
-9.724
62
0
0
LINE
8
1
10
-71.006
20
-9.724
11
-71.318
21
-9.869
62
0
0
LINE
8
1
10
-71.318
20
-9.869
11
-71.655
21
-9.959
62
0
0
LINE
8
1
10
-71.655
20
-9.959
11
-79.383
21
-9.991
62
0
0
LINE
8
1
10
-79.383
20
-9.991
11
-77.461
21
-20.028
62
0
0
LINE
8
1
10
-77.461
20
-20.028
11
-75.14
21
-27.488
62
0
0
LINE
8
1
10
-75.14
20
-27.488
11
-70.986
21
-36.911
62
0
0
LINE
8
1
10
-70.986
20
-36.911
11
-65.707
21
-45.651
62
0
0
LINE
8
1
10
-65.707
20
-45.651
11
-60.942
21
-51.842
62
0
0
LINE
8
1
10
-60.942
20
-51.842
11
-53.778
21
-59.24
62
0
0
LINE
8
1
10
-53.778
20
-59.24
11
-45.724
21
-65.657
62
0
0
LINE
8
1
10
-45.724
20
-65.657
11
-36.912
21
-70.986
62
0
0
LINE
8
1
10
-36.912
20
-70.986
11
-27.489
21
-75.139
62
0
0
LINE
8
1
10
-27.489
20
-75.139
11
-17.611
21
-78.048
62
0
0
LINE
8
1
10
-17.611
20
-78.048
11
-9.99
21
-79.384
62
0
0
LINE
8
1
10
-9.99
20
-79.384
11
-9.961
21
-71.666
62
0
0
LINE
8
1
10
-9.961
20
-71.666
11
-9.873
21
-71.329
62
0
0
LINE
8
1
10
-9.873
20
-71.329
11
-9.874
21
-71.329
62
0
0
LINE
8
1
10
-9.874
20
-71.329
11
-9.87
21
-71.319
62
0
0
LINE
8
1
10
-9.87
20
-71.319
11
-9.724
21
-71.006
62
0
0
LINE
8
1
10
-9.724
20
-71.006
11
-9.525
21
-70.721
62
0
0
LINE
8
1
10
-9.525
20
-70.721
11
-9.279
21
-70.475
62
0
0
LINE
8
1
10
-9.279
20
-70.475
11
-8.994
21
-70.275
62
0
0
LINE
8
1
10
-8.994
20
-70.275
11
-8.681
21
-70.13
62
0
0
LINE
8
1
10
-8.681
20
-70.13
11
-8.344
21
-70.04
62
0
0
LINE
8
1
10
-8.344
20
-70.04
11
7.999
21
-70.01
62
0
0
LINE
8
1
10
7.999
20
-70.01
11
8.344
21
-70.04
62
0
0
LINE
8
1
10
8.344
20
-70.04
11
8.681
21
-70.13
62
0
0
LINE
8
1
10
8.681
20
-70.13
11
8.994
21
-70.275
62
0
0
LINE
8
1
10
8.994
20
-70.275
11
9.279
21
-70.475
62
0
0
ENDSEC
0
EOF
